<?xml version="1.0" encoding="UTF-8"?>
<svg id="Layer_9" data-name="Layer 9" xmlns="http://www.w3.org/2000/svg" viewBox="0 0 256 256">
  <defs>
    <style>
      .cls-1 {
        fill: #f78f21;
      }

      .cls-2 {
        fill: #221f1f;
      }
    </style>
  </defs>
  <g>
    <polygon class="cls-1" points="142.17 102.3 128 126.61 113.84 102.3 128 78 142.17 102.3"/>
    <polygon class="cls-2" points="128 126.61 116.26 146.75 102.1 171.06 88.02 195.2 70.04 226.06 55.73 250.6 27.33 250.72 41.64 226.18 73.86 170.9 87.93 146.75 102.1 122.45 113.84 102.3 128 126.61"/>
    <polygon class="cls-2" points="176.5 250.11 148.23 250.22 120.16 250.34 108.08 250.39 79.67 250.5 93.98 225.96 93.98 225.96 99.97 215.69 105.93 225.92 122.38 225.85 134 225.8 128.2 215.86 114.04 191.55 128.2 167.24 142.37 191.55 162.27 225.68 176.5 250.11"/>
    <polygon class="cls-1" points="228.19 249.9 199.93 250.01 185.69 225.59 154.11 171.41 139.94 147.1 154.11 122.79 168.28 147.1 213.96 225.47 228.19 249.9"/>
  </g>
  <path class="cls-1" d="m128,64.32c-1.65,0-2.99-1.34-2.99-2.99v-19.91c0-1.65,1.34-2.99,2.99-2.99s2.99,1.34,2.99,2.99v19.91c0,1.65-1.34,2.99-2.99,2.99Z"/>
  <path class="cls-1" d="m43.35,148.19h-19.91c-1.65,0-2.99-1.34-2.99-2.99s1.34-2.99,2.99-2.99h19.91c1.65,0,2.99,1.34,2.99,2.99s-1.34,2.99-2.99,2.99Z"/>
  <path class="cls-1" d="m231.04,148.19h-19.91c-1.65,0-2.99-1.34-2.99-2.99s1.34-2.99,2.99-2.99h19.91c1.65,0,2.99,1.34,2.99,2.99s-1.34,2.99-2.99,2.99Z"/>
  <path class="cls-2" d="m154.03,33.63c-8.36-1.95-17.09-2.99-26.03-2.99-8.44,0-16.69.92-24.61,2.67C52.01,44.6,13.44,90.48,13.44,145.2c0,28.34,10.35,54.32,27.48,74.33l.78-1.37c-16.69-19.71-26.76-45.16-26.76-72.96,0-54.18,38.29-99.58,89.25-110.54,7.69-1.65,15.65-2.53,23.82-2.53,8.68,0,17.13.98,25.25,2.85,50.24,11.49,87.81,56.55,87.81,110.22,0,27.8-10.08,53.27-26.76,72.96l.8,1.35c17.13-20.01,27.46-45.98,27.46-74.31,0-54.22-37.87-99.76-88.53-111.57Z"/>
  <path class="cls-2" d="m150.84,39.12c-7.37-1.59-15.01-2.43-22.84-2.43-7.33,0-14.48.74-21.41,2.13-49.62,9.96-87.1,53.86-87.1,106.37,0,26.09,9.26,50.04,24.65,68.78l3.23-5.52c-13.72-17.42-21.9-39.41-21.9-63.26,0-50.32,36.44-92.28,84.31-100.9,5.91-1.08,12.01-1.63,18.22-1.63,6.73,0,13.3.66,19.67,1.91,47.15,9.18,82.86,50.82,82.86,100.62,0,23.86-8.18,45.82-21.9,63.24l3.23,5.52c15.41-18.74,24.65-42.69,24.65-68.76,0-52.01-36.76-95.56-85.66-106.07Z"/>
  <rect class="cls-2" x="123.06" y="16.58" width="11.38" height="14.22"/>
  <rect class="cls-2" x="122.15" y="-4.23" width="13.2" height="32.23" transform="translate(116.87 140.63) rotate(-90)"/>
  <rect class="cls-2" x="60.6" y="42.84" width="6" height="7.5" transform="translate(-15.18 43.41) rotate(-33.91)"/>
  <rect class="cls-2" x="56.64" y="32.92" width="6.96" height="16.99" transform="translate(59.29 114.43) rotate(-123.91)"/>
</svg>